<?xml version="1.0" encoding="utf-8"?>
<!-- Generator: Adobe Illustrator 26.4.1, SVG Export Plug-In . SVG Version: 6.00 Build 0)  -->
<svg version="1.1" id="Layer_1" xmlns="http://www.w3.org/2000/svg" xmlns:xlink="http://www.w3.org/1999/xlink" x="0px" y="0px"
	 viewBox="0 0 304 56" style="enable-background:new 0 0 304 56;" xml:space="preserve">
<style type="text/css">
	.st0{fill:#3C4D4F;}
</style>
<g>
	<g>
		<path class="st0" d="M223.6,1.4c-1,0-1.9,0.7-2.1,1.8c-0.3,1.2-0.4,2.5-0.4,5.6c-0.1,3.1-0.2,9.6-0.2,13c0,2.7,0,6.3,0.1,10.7
			c0.1,5.7,0.3,7.7,0.8,8.7c0.3,0.7,1,1.1,1.8,1.1c1,0,1.8-0.7,2-1.8c0.3-1.2,0.4-2.4,0.5-5.6c0.1-0.7,0.1-1.6,0.1-2.8l0-0.7
			l0.1-3.2c0.1-3.3,0.1-4.7,0.1-6.4c0-1.7,0-3.1-0.1-6.4c-0.1-5.9-0.2-7.6-0.3-10.2C225.7,1.8,224.5,1.4,223.6,1.4L223.6,1.4z
			 M222.9,43.7c-1.9,0-3.6-0.9-4.7-2.5c-1.2-1.6-1.9-3.3-2.6-5.9c-0.9-4.1-1.5-9.2-1.5-13.5c0-6.4,1-12.7,2.7-17
			c1.2-3.1,3.4-4.8,6.1-4.8c1.8,0,3.5,0.9,4.7,2.5c1.1,1.5,1.8,3.2,2.6,5.9c0.9,3.6,1.6,9.2,1.6,13.5c0,6.4-1.1,13.1-2.8,17
			C227.6,42,225.5,43.7,222.9,43.7L222.9,43.7z M92.6,54.6H75v-1.3h2.8V1.3H75V0h17.7v15.5h-1.3v-0.2c-0.6-6.2-1.5-8.9-2.6-11
			c-1.3-2.2-2.3-2.8-5.6-3v23c2.2-0.1,3.5-1.9,4-10.6l0-0.2h1.2v24.1h-1.2l0-0.2l-0.1-1.1c-0.3-4.4-0.7-7-1.3-8.5
			c-0.6-1.4-1.3-2-2.6-2.1v27.7c2.9-0.3,4.3-1.3,5.5-3.8c1.5-3.1,2.2-6.9,2.5-13l0-0.2h1.3L92.6,54.6L92.6,54.6z M125.1,54.6h-11.1
			v-1.3h3V26.8l-5.5-25.6h-2.3V0h10.1v1.3h-2.4l4.8,22.3c0.8-3.7,3.1-14.6,3.1-14.7c0.4-1.8,0.6-3.3,0.6-4.2c0-1.9-0.9-2.9-3.2-3.4
			l-0.2,0V0h9v1.2l-0.2,0c-2.5,0.7-3.6,2.5-4.7,7.6l-3.8,17.9v26.5h2.9V54.6L125.1,54.6z M193,54.6h-11.1v-1.3h2.8V1.5
			c-1.3,0.6-2.3,2-3.1,4.4c-0.9,2.6-1.5,6.5-1.7,10.4v0.3h-1.3V0h17.7v16.5h-1.2l0-0.2l0,0c0-0.2-0.1-0.7-0.1-0.7
			c-0.5-8.2-2.2-13.2-4.8-14.2v51.9h2.8L193,54.6L193,54.6z M303.9,54.6h-17.6v-1.3h2.9V1.3h-2.9V0H304v15.5h-1.3l0-0.2
			c-0.6-6.3-1.5-8.9-2.6-11c-1.2-2.3-2.3-2.8-5.6-3v23c2.2-0.1,3.5-1.9,4-10.6v-0.2h1.2v24.1h-1.2v-0.2l-0.1-1.1
			c-0.3-4.4-0.7-7-1.3-8.5c-0.6-1.4-1.3-2-2.6-2.1v27.7c2.9-0.3,4.4-1.3,5.5-3.8c1.5-3.1,2.2-6.9,2.5-13v-0.2h1.3L303.9,54.6
			L303.9,54.6z M43.6,1.4v23.2c1.8-0.1,3.2-0.5,4.2-2.1c0.9-1.6,1.3-4.4,1.3-9.1c0-4.9-0.4-7.9-1.3-9.6C46.8,1.8,45.2,1.5,43.6,1.4
			L43.6,1.4z M46.5,54.6l-11.1,0v-1.3h2.9V1.3h-2.9V0h7.6c4.2,0,6.5,0.9,8.4,3.1c2.2,2.6,3.3,6,3.3,10.4c0,6.2-2.7,10.5-7.7,11.9
			c3.1,0.7,5.2,2.2,6.3,4.7c0.8,1.9,1,3.8,1,7.6v14.1c0,1.2,0.4,1.6,1.5,1.6h1.4v1.3l-5.6,0c-1.8,0-2.6-0.8-2.6-2.6V32.9
			c0-2.6-0.4-4.2-1.2-5.2c-0.8-1-2-1.5-4-1.6v27.4h2.7L46.5,54.6L46.5,54.6z M9.1,56c-2.2,0-4-1.7-5.5-5.2C1.4,45.9,0,36.5,0,27.7
			C0,17.6,1.7,8.1,4.4,3.5C5.7,1.1,7.1,0,9,0c1.6,0,2.4,0.8,3.5,3.2c0.3,0.6,0.5,0.7,0.7,0.7c0.4,0,0.7-0.4,0.9-3V0.7h1.3v16.5H14
			l0-0.2c-0.7-5.4-1.8-10.1-3-13.3c-0.6-1.5-1.2-2.3-1.9-2.3C8,1.3,7.4,2.4,7,5c-0.2,0.9-0.2,2.7-0.3,5.5l0,0.3
			c-0.1,1.5-0.1,2.8-0.2,4.3l0,0.4l-0.1,2.2v8.8c0,12.3,0.2,20.1,0.5,24.1c0.3,2.5,1.1,4,2.3,4c1.5,0,2.3-2.4,2.3-7v-16H8.4v-1.3
			h10.7v1.3h-2.5c0,8.8-0.5,19.4-4.3,23.1C11.4,55.5,10.3,56,9.1,56L9.1,56z M155.1,56c-2,0-3.4-0.9-5.2-3.4c-1-1.4-1.1-1.4-1.5-1.4
			c-0.7,0-1,0.6-1.2,4.2l0,0.3H146V36h1.3l0,0.2c0.4,3.8,1.2,7.8,2.3,11.3c1.5,4.5,3.2,6.6,5.3,6.6c2.3,0,3.6-2.1,3.6-6
			c0-2.7-0.7-5.7-2.4-9.9c-1.2-3-2.1-5.1-4.9-10.5c-3.9-7.6-5.3-12-5.3-16.8c0-6.5,2.8-11,6.9-11c1.8,0,3.3,0.9,4.8,2.9
			c0,0,0.7,0.9,0.7,0.9c0.3,0.5,0.5,0.5,0.7,0.5c0.4,0,0.6-0.5,0.8-3.3V0.4h1.3v16.7h-1.3l0-0.2c-1.3-9.7-3.7-15.1-6.8-15.1
			c-0.8,0-1.4,0.3-2,0.8c-1,0.9-1.5,2.6-1.5,4.6c0,4.1,1.3,7.6,6.8,17.8c2.7,4.9,3.9,7.6,4.8,10.9c0.9,2.9,1.3,5.6,1.3,7.8
			c0,4.6-1.3,8.6-3.5,10.7C157.7,55.4,156.4,56,155.1,56L155.1,56z M222.9,56c-3.5,0-6.4-0.8-7.2-2c-0.2-0.3-0.2-0.5-0.2-0.8
			c0-2,4.5-2.7,7.5-2.7c3.5,0,6.5,0.8,7.3,1.9c0.2,0.3,0.2,0.5,0.2,0.8c0,0.3-0.1,0.5-0.2,0.8C229.3,55.2,226.4,56,222.9,56z
			 M266.1,56h-1.3l-11.5-44.2v32.6c0,0.9,0.1,3.4,0.2,4.7c0,1.9,0.2,3.1,0.7,3.8c0.5,0.8,1.3,1.2,2.6,1.3l0.2,0v1.2h-8.8v-1.2l0.3,0
			c3-0.5,3.6-1.3,3.6-9.8V2.6h-2.9V1.4h7.3l8.3,33V9.6c0-5.4-0.5-6.5-3.4-7l-0.2,0V1.4h8.8v1.2l-0.2,0c-2.8,0.4-3.6,1.6-3.6,9.8V56
			L266.1,56z"/>
	</g>
</g>
</svg>
